<svg preserveAspectRatio="none" width="100%" height="100%" overflow="visible" style="display: block;" viewBox="0 0 54 54" fill="none" xmlns="http://www.w3.org/2000/svg">
<g id="logo">
<path id="Exclude" d="M27 0C41.9117 0 54 12.0883 54 27C54 41.9117 41.9117 54 27 54C12.0883 54 0 41.9117 0 27C0 12.0883 12.0883 0 27 0ZM11.0459 27.1963C11.1682 27.9003 11.3352 28.5953 11.5459 29.2764C12.3587 32.3968 14.3592 34.3478 17.3604 35.583C18.861 36.1681 24.3641 36.8184 24.7393 36.8184C23.1762 36.0383 21.5504 35.2583 19.9873 34.2832C17.583 32.9522 15.7835 30.684 14.9844 27.9766C14.8593 27.5866 14.7345 27.4561 14.3594 27.4561C13.2506 27.444 12.1438 27.3574 11.0459 27.1963ZM42.9541 27.1963C41.856 27.3574 40.7486 27.444 39.6396 27.4561C39.2649 27.4562 39.1397 27.5867 39.0146 27.9766C38.2155 30.684 36.417 32.9522 34.0127 34.2832C32.4496 35.2583 30.8239 36.0383 29.2607 36.8184C29.6386 36.818 35.1382 36.1679 36.6387 35.583C39.64 34.3478 41.6412 32.3969 42.4541 29.2764C42.6648 28.5953 42.8318 27.9003 42.9541 27.1963ZM16.1982 21.0205C15.7407 22.3357 15.4868 23.7182 15.4473 25.1162C15.4197 27.7861 16.6012 30.3143 18.6367 31.9424C20.8251 33.8276 22.7011 34.6074 25.3271 35.5176C25.7022 35.6476 25.9522 35.7777 26.5146 35.9727C26.5147 34.9317 26.6398 29.9917 26.2646 28.4316C25.8269 26.2863 24.3886 24.791 22.2627 23.8809C21.5125 23.5559 20.8245 23.2957 20.0742 22.9707C17.9487 22.0607 18.0111 22.3204 16.1982 21.0205ZM37.8271 21.0205C36.0139 22.3207 36.076 22.0606 33.9502 22.9707C33.1999 23.2957 32.512 23.5558 31.7617 23.8809C29.6358 24.791 28.1975 26.2863 27.7598 28.4316C27.3846 29.9917 27.5097 34.9317 27.5098 35.9727C28.0722 35.7777 28.3223 35.6476 28.6973 35.5176C31.3235 34.6074 33.2002 33.8277 35.3887 31.9424C37.424 30.3143 38.6047 27.786 38.5771 25.1162C38.5377 23.7183 38.2847 22.3356 37.8271 21.0205ZM27.0156 14.7275C27.0006 14.7428 24.2668 17.5251 23.001 22.958C25.0424 23.7019 26.5639 25.4978 27.0156 27.6973C27.6034 24.0111 31.0176 22.958 31.0176 22.958C29.7299 17.441 27.0432 14.755 27.0156 14.7275Z" fill="var(--fill-0, #EA4A35)"/>
</g>
</svg>
